# xmcd CD database file
#
# Track frame offsets:
#	150
#	16507
#	33773
#	51861
#	69454
#	84618
#	111713
#	130985
#	145618
#	170791
#
# Disc length: 2521 seconds
#
# Revision: 0
# Processed by: cddbd v1.5.2PL0 Copyright (c) Steve Scherf et al.
# Submitted via: CDex 1.70beta2
#
DISCID=8509d70a
DTITLE=L'Automne Des Abonnés - World, Jazz, Chanson
DYEAR=2006
DGENRE=Jazz
TTITLE0=Nicoles Willis and The Soul Investigators - Feeling Free
TTITLE1=Flat Earth Society - Edward, Why Don't You Play Some Blues
TTITLE2=The Congos - Spiritual Organisation
TTITLE3=Dino Saluzzi Group - Inside
TTITLE4=Solomon Burke - That's How I Got To Menphis
TTITLE5=Super Boiro Band - So I Si Sa
TTITLE6=Stéphane Guillaume - Quai Des Arts
TTITLE7=Joe Bataan - Daddy's Coming Home
TTITLE8=Boubacar Traore - Mariama Kaba
TTITLE9=Franck Avitabile - Childhood Memory
EXTD=YEAR: 2006
EXTT0=
EXTT1=
EXTT2=
EXTT3=
EXTT4=
EXTT5=
EXTT6=
EXTT7=
EXTT8=
EXTT9=
PLAYORDER=
